<svg width="21" height="21" viewBox="0 0 21 21" fill="none" xmlns="http://www.w3.org/2000/svg">
<g clip-path="url(#clip0_1710_609)">
<path d="M7.02399 16.9092C7.02399 16.996 6.92661 17.0655 6.80383 17.0655C6.66411 17.0785 6.56673 17.009 6.56673 16.9092C6.56673 16.8223 6.66411 16.7528 6.7869 16.7528C6.91391 16.7398 7.02399 16.8093 7.02399 16.9092ZM5.70726 16.7138C5.67762 16.8006 5.7623 16.9005 5.88931 16.9265C5.9994 16.97 6.12641 16.9265 6.15181 16.8397C6.17722 16.7528 6.09677 16.653 5.96976 16.6139C5.85968 16.5835 5.7369 16.6269 5.70726 16.7138ZM7.57863 16.6399C7.45585 16.6703 7.37117 16.7528 7.38387 16.8527C7.39657 16.9396 7.50665 16.996 7.63367 16.9656C7.75645 16.9352 7.84113 16.8527 7.82843 16.7659C7.81573 16.6834 7.70141 16.6269 7.57863 16.6399ZM10.3645 0C4.49214 0 0 4.57251 0 10.5954C0 15.4111 2.95524 19.532 7.17641 20.9823C7.71835 21.0822 7.90887 20.7391 7.90887 20.4569C7.90887 20.1877 7.89617 18.7026 7.89617 17.7907C7.89617 17.7907 4.93246 18.442 4.31008 16.4966C4.31008 16.4966 3.82742 15.233 3.13306 14.9073C3.13306 14.9073 2.16351 14.2256 3.20081 14.2386C3.20081 14.2386 4.25504 14.3255 4.83508 15.3589C5.7623 17.0351 7.31613 16.5531 7.92157 16.2665C8.01895 15.5717 8.29415 15.0897 8.59899 14.8031C6.23226 14.5339 3.84436 14.1822 3.84436 10.0048C3.84436 8.81066 4.16613 8.21141 4.84355 7.44716C4.73347 7.1649 4.37359 6.00115 4.95363 4.49869C5.83851 4.21644 7.875 5.67113 7.875 5.67113C8.72177 5.42796 9.63206 5.30203 10.5339 5.30203C11.4357 5.30203 12.346 5.42796 13.1927 5.67113C13.1927 5.67113 15.2292 4.21209 16.1141 4.49869C16.6942 6.00549 16.3343 7.1649 16.2242 7.44716C16.9016 8.21575 17.3165 8.815 17.3165 10.0048C17.3165 14.1952 14.8228 14.5296 12.456 14.8031C12.8456 15.1462 13.1758 15.7975 13.1758 16.818C13.1758 18.2814 13.1631 20.0921 13.1631 20.4482C13.1631 20.7304 13.3579 21.0735 13.8956 20.9736C18.1294 19.532 21 15.4111 21 10.5954C21 4.57251 16.2369 0 10.3645 0ZM4.11532 14.9768C4.06028 15.0202 4.07298 15.1201 4.14496 15.2026C4.2127 15.2721 4.31008 15.3025 4.36512 15.246C4.42016 15.2026 4.40746 15.1027 4.33548 15.0202C4.26774 14.9508 4.17036 14.9204 4.11532 14.9768ZM3.65806 14.6251C3.62843 14.6815 3.67077 14.751 3.75544 14.7944C3.82319 14.8379 3.90786 14.8248 3.9375 14.764C3.96714 14.7076 3.9248 14.6381 3.84012 14.5947C3.75544 14.5686 3.6877 14.5817 3.65806 14.6251ZM5.02984 16.171C4.9621 16.2274 4.9875 16.3577 5.08488 16.4402C5.18226 16.5401 5.30504 16.5531 5.36008 16.4836C5.41512 16.4272 5.38972 16.2969 5.30504 16.2144C5.2119 16.1145 5.08488 16.1015 5.02984 16.171ZM4.54718 15.5326C4.47944 15.5761 4.47944 15.689 4.54718 15.7888C4.61492 15.8887 4.72923 15.9321 4.78427 15.8887C4.85202 15.8323 4.85202 15.7194 4.78427 15.6195C4.725 15.5196 4.61492 15.4762 4.54718 15.5326Z" fill="black"/>
</g>
<defs>
<clipPath id="clip0_1710_609">
<rect width="21" height="21" fill="white"/>
</clipPath>
</defs>
</svg>
