<svg width="21" height="21" viewBox="0 0 21 21" fill="none" xmlns="http://www.w3.org/2000/svg">
<g clip-path="url(#clip0_1709_610)">
<path d="M0 10.08C0 5.32823 0 2.95236 1.47618 1.47618C2.95236 0 5.32823 0 10.08 0H10.92C15.6718 0 18.0476 0 19.5238 1.47618C21 2.95236 21 5.32823 21 10.08V10.92C21 15.6718 21 18.0476 19.5238 19.5238C18.0476 21 15.6718 21 10.92 21H10.08C5.32823 21 2.95236 21 1.47618 19.5238C0 18.0476 0 15.6718 0 10.92V10.08Z" fill="black"/>
<path d="M11.1377 15.12C6.25876 15.12 3.47594 11.8092 3.35999 6.29999H5.80391C5.88418 10.3436 7.68586 12.0564 9.11297 12.4095V6.29999H11.4143V9.78737C12.8235 9.63728 14.304 8.0481 14.8035 6.29999H17.1047C16.7212 8.45422 15.1157 10.0434 13.974 10.6967C15.1157 11.2265 16.9443 12.6126 17.64 15.12H15.1068C14.5627 13.4425 13.2071 12.1447 11.4143 11.9681V15.12H11.1377Z" fill="white"/>
</g>
<defs>
<clipPath id="clip0_1709_610">
<rect width="21" height="21" fill="white"/>
</clipPath>
</defs>
</svg>
