<svg width="21" height="21" viewBox="0 0 21 21" fill="none" xmlns="http://www.w3.org/2000/svg">
<path d="M0 21L1.48332 15.6078C0.568349 14.0297 0.0870762 12.2395 0.0877486 10.4055C0.090102 4.66791 4.78045 0 10.544 0C13.3408 0.00117138 15.9661 1.08486 17.9402 3.05176C19.9142 5.01865 21.001 7.63315 21 10.4138C20.9975 16.1512 16.3065 20.8198 10.544 20.8198C10.5436 20.8198 10.5441 20.8198 10.544 20.8198H10.5394C8.78949 20.8191 7.07015 20.3822 5.54296 19.553L0 21ZM5.79965 17.6693L6.11719 17.8565C7.45124 18.6447 8.98079 19.0615 10.5406 19.0624H10.544C15.3338 19.0624 19.2324 15.1821 19.2344 10.4132C19.2353 8.10204 18.3322 5.92881 16.6914 4.29408C15.0504 2.65935 12.8686 1.75856 10.5472 1.75756C5.75342 1.75756 1.85499 5.63731 1.85314 10.4061C1.85247 12.0404 2.31172 13.6317 3.18181 15.0089L3.38858 15.3363L2.51042 18.5277L5.79965 17.6693Z" fill="black"/>
<path fill-rule="evenodd" clip-rule="evenodd" d="M7.93063 6.05536C7.73496 5.62228 7.52887 5.61358 7.34262 5.60605C7.19032 5.59952 7.016 5.59986 6.84201 5.59986C6.66786 5.59986 6.38478 5.66512 6.14541 5.92533C5.90586 6.18555 5.23077 6.81474 5.23077 8.09439C5.23077 9.37421 6.16709 10.6107 6.29771 10.7844C6.42832 10.9579 8.10512 13.6678 10.7606 14.7103C12.9676 15.5768 13.4166 15.4045 13.8957 15.3611C14.3748 15.3178 15.4414 14.7319 15.659 14.1247C15.8769 13.5174 15.8769 12.9969 15.8115 12.888C15.7461 12.7797 15.572 12.7146 15.3107 12.5846C15.0495 12.4546 13.7651 11.8252 13.5255 11.7386C13.286 11.6517 13.1118 11.6085 12.9377 11.8689C12.7633 12.129 12.2631 12.7146 12.1106 12.888C11.9581 13.0619 11.8057 13.0836 11.5445 12.9534C11.2832 12.8231 10.4417 12.5486 9.44353 11.6626C8.66691 10.9733 8.14244 10.1219 7.98997 9.8615C7.83767 9.60146 7.98745 9.47294 8.10478 9.33087C8.31609 9.075 8.67061 8.61499 8.75769 8.44162C8.84476 8.26792 8.80122 8.11615 8.736 7.98596C8.67061 7.85593 8.16278 6.56976 7.93063 6.05536V6.05536Z" fill="black"/>
</svg>
